<!DOCTYPE svg PUBLIC "-//W3C//DTD SVG 1.1//EN" "http://www.w3.org/Graphics/SVG/1.1/DTD/svg11.dtd">
<!-- Uploaded to: SVG Repo, www.svgrepo.com, Transformed by: SVG Repo Mixer Tools -->
<svg version="1.1" id="Layer_1" xmlns="http://www.w3.org/2000/svg" xmlns:xlink="http://www.w3.org/1999/xlink" viewBox="0 0 496 496" xml:space="preserve" width="64px" height="64px" fill="#000000">
<g id="SVGRepo_bgCarrier" stroke-width="0"/>
<g id="SVGRepo_tracerCarrier" stroke-linecap="round" stroke-linejoin="round"/>
<g id="SVGRepo_iconCarrier"> <path style="fill:#232222;" d="M0,304v65.6C0,396.8,21.6,416,48,416h400c26.4,0,48-19.2,48-46.4V304H0z"/> <path style="fill:#49A948;" d="M448,80H48C21.6,80,0,99.2,0,126.4V192h496v-65.6C496,99.2,474.4,80,448,80z"/> <rect y="192" style="fill:#FFFFFF;" width="496" height="112"/> <path style="fill:#232222;" d="M446.4,416c26.4,0,49.6-19.2,49.6-46.4V304H315.2L446.4,416z"/> <path style="fill:#49A948;" d="M448,80H48l132.8,112H496v-65.6C496,99.2,474.4,80,448,80z"/> <polygon style="fill:#ffffff;" points="316,304 496,304 496,192 180,192 "/> <path style="fill:#49A948;" d="M448,80H48l370.4,112H496v-65.6C496,99.2,474.4,80,448,80z"/> <polygon style="fill:#ffffff;" points="496,214.4 496,192 414.4,192 "/> <path style="fill:#232222;" d="M496,368.8c0,28.8-21.6,47.2-48,47.2H48c-26.4,0-48-20.8-48-48"/> <path style="fill:#E73B36;" d="M120,80H48C21.6,80,0,99.2,0,126.4v64v0.8v114.4v0.8v64C0,396.8,21.6,416,48,416h72V80z"/> <polygon style="fill:#E73B36;" points="120,192 0,192 0,191.2 0,304.8 0,304 120,304 "/> <path style="fill:#E73B36;" d="M0,304v2.4v64C0,396.8,21.6,416,48,416h72V304H0z"/> <path style="fill:#E73B36;" d="M0,368c0,32,21.6,48,48,48h72v-48H0z"/> <polygon style="fill:#E73B36;" points="120,80 48,80 120,140.8 "/> <polygon style="fill:#E73B36;" points="120,80 48,80 120,100 "/> </g>
</svg>